# xmcd
# Track frame offsets:
# 150
# 10202
# 23127
# 30617
# 38956
# 61733
# 67453
# 76800
# 91335
# 104666
# 115193
# 128432
# 139611
# 151614
# 163816
# 172721
# 185323
# 194394
# 203732
# 212192
#
# Disc length: 2962 seconds
# Revision: 0
# Processed by: cddbd v1.5.1PL2 Copyright (c) Steve Scherf et al.
# Submitted via: VisiTrax 2.9.10.228 - For more info visit www.synapsa.com
#
DISCID=050b9014
DTITLE="Groovy" Joe Poovey - The Late Great Me
DYEAR=2004
DGENRE=
TTITLE0=Move Around
TTITLE1=Will The Circle Be Unbroken
TTITLE2=Don`t blame it on Me
TTITLE3=My Lifs`s Ambition
TTITLE4=Deep Ellum Rock
TTITLE5=Sweet Louella
TTITLE6=Heart Full of love
TTITLE7=If You`re Got problems in your Home
TTITLE8=What`s Gonna Happen To The Little Folks
TTITLE9=Grey Flannel World
TTITLE10=Age of Rock is yet to Come
TTITLE11=That`s Alright Mama
TTITLE12=Cat Daddy
TTITLE13=New School Days
TTITLE14=Ten Long Fingers
TTITLE15=Don`t Blame it on Me
TTITLE16=Rock The Joint
TTITLE17=Bopping The Blues
TTITLE18=Come on Baby Let`s Rock
TTITLE19=Honey Babe
EXTD=
EXTT0=
EXTT1=
EXTT2=
EXTT3=
EXTT4=
EXTT5=
EXTT6=
EXTT7=
EXTT8=
EXTT9=
EXTT10=
EXTT11=
EXTT12=
EXTT13=
EXTT14=
EXTT15=
EXTT16=
EXTT17=
EXTT18=
EXTT19=
PLAYORDER=
